<?xml version="1.0" standalone="no"?>
<!DOCTYPE svg PUBLIC "-//W3C//DTD SVG 20010904//EN"
 "http://www.w3.org/TR/2001/REC-SVG-20010904/DTD/svg10.dtd">
<svg version="1.0" xmlns="http://www.w3.org/2000/svg"
 width="320.000000pt" height="320.000000pt" viewBox="0 0 320.000000 320.000000"
 preserveAspectRatio="xMidYMid meet">

<g transform="translate(0.000000,320.000000) scale(0.100000,-0.100000)"
fill="#000000" stroke="none">
<path d="M175 3090 c-11 -4 -31 -20 -45 -35 l-25 -27 -3 -1415 c-2 -1554 -6
-1459 57 -1496 27 -16 128 -17 1441 -17 1556 0 1445 -5 1484 60 15 26 16 151
16 1440 0 1313 -1 1414 -17 1441 -37 63 56 59 -1485 58 -771 0 -1412 -4 -1423
-9z m2695 -1490 l0 -1270 -1270 0 -1270 0 0 1270 0 1270 1270 0 1270 0 0
-1270z"/>
<path d="M1310 2505 c-14 -7 -31 -24 -38 -37 -7 -13 -62 -189 -122 -392 -61
-203 -112 -371 -113 -373 -2 -2 -9 15 -16 36 -23 77 -101 113 -169 77 -15 -8
-72 -60 -127 -115 -96 -97 -101 -101 -143 -101 -82 0 -132 -44 -132 -118 0
-37 6 -50 34 -78 l34 -34 99 0 c109 0 117 3 191 74 23 22 42 38 42 36 0 -3 16
-68 35 -145 30 -121 38 -144 65 -167 41 -37 106 -39 147 -4 25 21 40 61 113
300 46 152 84 275 86 273 2 -1 19 -246 39 -542 22 -321 41 -550 48 -564 41
-83 161 -83 205 0 7 13 69 195 139 403 l126 379 58 -115 c65 -129 92 -158 151
-158 60 0 85 24 139 132 l49 98 214 0 c204 0 215 1 241 22 60 47 64 127 9 179
-26 24 -26 24 -290 27 -289 3 -313 0 -346 -55 l-16 -27 -65 130 c-36 71 -76
139 -90 152 -37 35 -94 39 -137 10 -33 -22 -39 -37 -121 -278 l-86 -255 -6 70
c-4 39 -20 293 -38 565 -20 328 -35 509 -45 535 -23 67 -101 95 -164 60z"/>
</g>
</svg>
