<?xml version="1.0" standalone="no"?>
<!DOCTYPE svg PUBLIC "-//W3C//DTD SVG 20010904//EN"
 "http://www.w3.org/TR/2001/REC-SVG-20010904/DTD/svg10.dtd">
<svg version="1.0" xmlns="http://www.w3.org/2000/svg"
 width="225.000000pt" height="225.000000pt" viewBox="0 0 225.000000 225.000000"
 preserveAspectRatio="xMidYMid meet">

<g transform="translate(0.000000,225.000000) scale(0.100000,-0.100000)"
fill="#000000" stroke="none">
<path d="M831 2228 c-69 -37 -91 -87 -91 -207 0 -73 5 -106 20 -139 25 -56 14
-92 -29 -92 -65 0 -126 -43 -162 -112 -18 -35 -19 -63 -19 -428 l0 -391 25
-24 c13 -14 31 -25 40 -25 13 0 15 -41 15 -350 0 -389 2 -403 62 -440 42 -25
84 -25 125 0 62 38 63 42 63 435 l0 355 35 0 34 0 3 -369 3 -370 29 -30 c51
-53 123 -53 176 1 l30 30 0 369 c0 365 0 369 20 369 12 0 32 11 45 25 l25 24
0 388 c0 356 -2 391 -19 428 -10 22 -29 50 -42 62 -30 27 -90 53 -124 53 -42
0 -53 40 -27 94 29 57 32 212 4 265 -46 91 -154 126 -241 79z m159 -440 c0
-15 -65 -108 -76 -108 -11 0 -74 91 -74 107 0 5 34 9 75 9 41 0 75 -4 75 -8z
m-154 -129 c65 -101 90 -102 154 -4 l42 65 50 0 c45 0 54 -4 89 -39 l39 -39 0
-381 0 -381 -50 0 -50 0 0 59 c0 66 -18 93 -48 74 -12 -7 -18 -27 -20 -72 l-3
-61 -124 0 -124 0 -3 61 c-2 45 -8 65 -20 72 -30 19 -48 -8 -48 -75 l0 -59
-52 3 -53 3 0 370 c0 344 1 372 19 401 26 43 63 63 117 64 44 0 46 -1 85 -61z
m-26 -1201 c0 -313 -2 -353 -17 -370 -22 -25 -59 -23 -77 4 -14 19 -16 72 -16
370 l0 348 55 0 55 0 0 -352z m320 2 c0 -337 -1 -351 -20 -370 -24 -24 -47
-25 -72 -3 -17 15 -18 40 -18 370 l0 353 55 0 55 0 0 -350z"/>
<path d="M1358 2228 c-64 -118 -69 -144 -27 -150 l22 -3 0 -1022 c-1 -1086 -1
-1075 44 -1047 17 11 18 60 21 1038 l2 1027 24 9 c13 5 27 13 30 19 4 6 -9 42
-29 81 -38 76 -64 90 -87 48z"/>
<path d="M1504 1866 c-3 -8 -4 -23 -2 -33 3 -15 13 -18 63 -18 60 0 60 0 60
30 0 30 -1 30 -58 33 -43 2 -59 -1 -63 -12z"/>
<path d="M1504 1726 c-3 -8 -4 -23 -2 -33 3 -15 15 -18 78 -21 103 -4 122 2
118 36 -3 27 -3 27 -96 30 -74 2 -93 0 -98 -12z"/>
<path d="M1507 1574 c-13 -13 -7 -52 9 -58 23 -9 87 -7 102 3 8 4 12 19 10 32
-3 22 -9 24 -58 27 -31 2 -59 0 -63 -4z"/>
<path d="M1504 1426 c-3 -8 -4 -23 -2 -33 3 -15 13 -18 63 -18 60 0 60 0 60
30 0 30 -1 30 -58 33 -43 2 -59 -1 -63 -12z"/>
<path d="M1507 1273 c-4 -3 -7 -17 -7 -29 0 -30 23 -36 114 -32 72 3 96 18 83
52 -5 13 -22 16 -95 16 -49 0 -92 -3 -95 -7z"/>
<path d="M1507 1134 c-13 -13 -7 -52 9 -58 23 -9 87 -7 102 3 8 4 12 19 10 32
-3 22 -9 24 -58 27 -31 2 -59 0 -63 -4z"/>
<path d="M1504 966 c-14 -36 3 -47 63 -44 54 3 58 5 58 28 0 23 -4 25 -58 28
-44 2 -59 0 -63 -12z"/>
<path d="M1503 824 c-14 -37 10 -49 97 -49 87 0 111 12 97 49 -5 13 -22 16
-97 16 -75 0 -92 -3 -97 -16z"/>
<path d="M1504 666 c-14 -36 3 -47 63 -44 54 3 58 5 58 28 0 23 -4 25 -58 28
-44 2 -59 0 -63 -12z"/>
<path d="M1504 526 c-14 -36 3 -47 63 -44 54 3 58 5 58 28 0 23 -4 25 -58 28
-44 2 -59 0 -63 -12z"/>
<path d="M1512 381 c-8 -4 -12 -19 -10 -32 3 -23 5 -24 98 -24 83 0 95 2 98
18 7 36 -16 47 -97 47 -42 0 -82 -4 -89 -9z"/>
<path d="M1510 235 c-6 -8 -10 -22 -8 -32 3 -15 13 -18 63 -18 55 0 60 2 63
23 4 24 -2 27 -64 36 -30 4 -45 2 -54 -9z"/>
</g>
</svg>
