<?xml version="1.0" standalone="no"?>
<!DOCTYPE svg PUBLIC "-//W3C//DTD SVG 20010904//EN"
 "http://www.w3.org/TR/2001/REC-SVG-20010904/DTD/svg10.dtd">
<svg version="1.0" xmlns="http://www.w3.org/2000/svg"
 width="320.000000pt" height="320.000000pt" viewBox="0 0 320.000000 320.000000"
 preserveAspectRatio="xMidYMid meet">

<g transform="translate(0.000000,320.000000) scale(0.100000,-0.100000)"
fill="#000000" stroke="none">
<path d="M879 2586 c-106 -28 -190 -100 -242 -205 l-32 -66 0 -715 0 -715 27
-57 c37 -80 107 -152 187 -191 l66 -32 715 0 715 0 65 32 c84 42 142 99 182
181 l33 67 0 715 0 715 -33 67 c-41 84 -96 139 -180 180 l-67 33 -695 2 c-530
2 -706 -1 -741 -11z m877 -231 c188 -33 339 -106 467 -226 l70 -65 -153 -192
-154 -192 -386 0 -387 0 -153 192 -153 192 69 65 c199 188 498 275 780 226z"/>
<path d="M1751 1980 c-77 -118 -138 -217 -135 -222 3 -4 43 -8 90 -8 78 0 85
2 94 23 15 32 101 409 95 415 -2 2 -67 -91 -144 -208z"/>
</g>
</svg>
